# xmcd CD database file
#
# Track frame offsets:
#	150
#	27255
#	55300
#	86713
#	114783
#	133075
#	155418
#	179900
#	202083
#	220825
#
# Disc length: 3381 seconds
#
# Revision: 0
# Processed by: cddbd v1.5PL3 Copyright (c) Steve Scherf et al.
# Submitted via: CDex 1.50
#
DISCID=910d330a
DTITLE=Bill Evans - AUTUMN LEAVES
DYEAR=1900
DGENRE=Jazz
TTITLE0=Autumn Leaves
TTITLE1=Israel
TTITLE2=Waltz for Debby
TTITLE3=Gloria's Step
TTITLE4=Five
TTITLE5=My Foolish Heart
TTITLE6=Minority
TTITLE7=What is there to say
TTITLE8=Oleo
TTITLE9=Night and Day
EXTD=
EXTT0=
EXTT1=
EXTT2=
EXTT3=
EXTT4=
EXTT5=
EXTT6=
EXTT7=
EXTT8=
EXTT9=
PLAYORDER=
